<?xml version="1.0" encoding="UTF-8" standalone="no"?><!DOCTYPE svg PUBLIC "-//W3C//DTD SVG 1.1//EN" "http://www.w3.org/Graphics/SVG/1.1/DTD/svg11.dtd"><svg width="100%" height="100%" viewBox="0 0 216 96" version="1.1" xmlns="http://www.w3.org/2000/svg" xmlns:xlink="http://www.w3.org/1999/xlink" xml:space="preserve" xmlns:serif="http://www.serif.com/" style="fill-rule:evenodd;clip-rule:evenodd;stroke-linejoin:round;stroke-miterlimit:2;"><path d="M29.208,66.021C29.144,66.015 28.649,66.679 27.723,68.012C26.797,69.345 25.589,70.781 24.097,72.321C22.605,73.86 20.885,75.25 18.937,76.49C16.989,77.731 14.993,78.259 12.949,78.073C10.138,77.819 7.868,76.744 6.14,74.848C4.412,72.953 3.684,70.504 3.956,67.501C3.967,65.957 4.339,64.155 5.073,62.096C5.807,60.037 6.804,57.922 8.063,55.749C9.323,53.577 10.8,51.489 12.495,49.485C14.19,47.481 15.971,45.774 17.838,44.366C19.704,42.957 21.614,41.954 23.568,41.358C25.522,40.763 27.434,40.807 29.304,41.492L29.426,40.15C29.576,38.489 29.683,36.776 29.747,35.011C29.81,33.245 29.896,31.224 30.006,28.948C30.116,26.671 30.257,24.044 30.43,21.065C30.603,18.085 30.878,14.52 31.254,10.367C31.51,9.682 31.887,9.249 32.386,9.069C32.886,8.889 33.423,8.825 33.998,8.877C35.467,9.01 36.589,9.595 37.365,10.631C38.141,11.667 38.561,12.897 38.625,14.32C38.3,16.48 38.051,18.696 37.878,20.966C37.704,23.237 37.583,25.818 37.515,28.71C37.446,31.602 37.454,34.888 37.54,38.567C37.625,42.245 37.763,46.589 37.953,51.598C38.143,56.606 38.395,62.361 38.708,68.862C39.021,75.363 39.781,75.327 40.231,83.869L39.936,87.127C39.901,87.51 39.732,87.785 39.427,87.95C39.122,88.116 38.758,88.228 38.334,88.286C37.91,88.344 37.489,88.371 37.071,88.365C36.653,88.359 36.348,88.348 36.156,88.33C35.198,88.244 34.2,87.879 33.164,87.238C32.127,86.597 31.556,85.788 31.451,84.813L29.844,66.465C29.861,66.274 29.792,66.155 29.635,66.108C29.478,66.062 29.336,66.033 29.208,66.021ZM12.152,66.602C12.135,66.793 12.089,67.127 12.013,67.603C11.938,68.08 11.893,68.575 11.879,69.089C11.864,69.603 11.904,70.057 11.997,70.452C12.09,70.847 12.328,71.061 12.711,71.096C14.303,71.305 16.002,70.847 17.811,69.723C19.62,68.598 21.312,67.158 22.888,65.4C24.464,63.643 25.814,61.721 26.937,59.633C28.06,57.545 28.747,55.642 28.999,53.926C29.251,52.21 28.956,50.847 28.114,49.837C27.271,48.827 25.709,48.476 23.427,48.784C20.46,50.963 17.925,53.535 15.821,56.5C13.717,59.466 12.494,62.833 12.152,66.602Z" style="fill:url(#_Linear1);fill-rule:nonzero;"/><path d="M48.038,75.843C47.981,69.721 47.935,64.487 47.9,60.141C47.866,55.795 47.829,52.152 47.789,49.212C47.75,46.273 47.702,43.929 47.646,42.18C47.591,40.432 47.542,39.113 47.5,38.222C47.459,37.331 47.421,36.731 47.388,36.423C47.355,36.114 47.341,35.929 47.347,35.868L47.379,35.504C47.44,34.837 47.779,34.302 48.397,33.899C49.014,33.496 49.626,33.322 50.233,33.377C51.143,33.46 52.115,33.701 53.149,34.1C54.184,34.5 54.839,35.201 55.115,36.205C55.392,39.227 55.499,42.265 55.436,45.318C55.374,48.37 55.283,51.405 55.162,54.422C55.042,57.439 54.981,60.476 54.979,63.535C54.977,66.593 55.206,69.641 55.664,72.68C55.653,72.801 55.677,73.048 55.735,73.421C55.793,73.793 55.848,74.195 55.901,74.628C55.953,75.061 55.993,75.462 56.021,75.832C56.049,76.202 56.057,76.447 56.046,76.568L56.03,76.75C56.024,76.811 56.049,76.874 56.104,76.941C56.038,77.669 55.639,78.366 54.905,79.034C54.172,79.702 53.447,79.942 52.73,79.754C52.553,79.677 52.123,79.531 51.439,79.316C50.755,79.102 50.297,78.922 50.066,78.779C49.889,78.702 49.659,78.543 49.375,78.304C49.091,78.064 48.823,77.81 48.572,77.543C48.321,77.275 48.118,76.982 47.964,76.662C47.809,76.342 47.834,76.069 48.038,75.843ZM48.951,9.039C48.99,8.614 49.373,8.266 50.101,7.996C50.829,7.726 51.375,7.607 51.739,7.64C52.649,7.722 53.641,8.072 54.717,8.689C55.793,9.307 56.284,10.131 56.191,11.163C56.097,12.194 55.897,12.879 55.591,13.219C55.285,13.558 54.617,13.681 53.585,13.587C52.493,13.488 51.419,13.024 50.363,12.194C49.306,11.365 48.836,10.313 48.951,9.039Z" style="fill:url(#_Linear2);fill-rule:nonzero;"/><path d="M73.246,78.126C73.274,77.823 73.314,77.551 73.366,77.311C73.418,77.071 73.577,76.841 73.841,76.62C74.652,75.776 75.557,74.895 76.558,73.976C77.559,73.058 78.529,72.136 79.469,71.212C80.409,70.288 81.293,69.313 82.12,68.287C82.947,67.261 83.652,66.224 84.237,65.176L84.286,64.63L72.142,66.007L70.777,65.883C69.927,65.806 68.886,65.651 67.654,65.417C66.421,65.183 65.231,64.815 64.084,64.314C62.936,63.812 61.986,63.16 61.233,62.358C60.48,61.556 60.158,60.548 60.268,59.334C60.455,57.945 61.323,56.463 62.873,54.891C64.422,53.319 66.211,51.799 68.24,50.331C70.269,48.863 72.303,47.518 74.34,46.296C76.378,45.074 78.009,44.12 79.233,43.436C80.573,42.823 82.143,42.369 83.944,42.074C85.744,41.778 87.373,41.696 88.829,41.828C90.042,41.938 91.083,42.262 91.952,42.799C92.821,43.336 93.195,44.273 93.074,45.607C93.025,46.153 92.932,46.665 92.797,47.142C92.662,47.619 92.253,47.918 91.569,48.04C89.644,47.682 87.812,47.654 86.072,47.955C84.332,48.256 82.662,48.793 81.063,49.566C79.464,50.338 77.941,51.286 76.493,52.409C75.046,53.532 73.625,54.703 72.23,55.922C71.827,56.314 71.319,56.864 70.704,57.573C70.089,58.282 69.776,58.697 69.765,58.818L69.757,58.909C71.334,59.052 72.91,59.042 74.485,58.879C76.06,58.716 77.635,58.537 79.213,58.344C80.79,58.15 82.366,57.972 83.941,57.809C85.515,57.645 87.121,57.638 88.76,57.786C89.366,57.841 90.029,57.947 90.749,58.104C91.469,58.261 92.134,58.52 92.743,58.881C93.353,59.242 93.831,59.699 94.179,60.25C94.527,60.801 94.665,61.472 94.593,62.26C94.489,63.413 94.101,64.494 93.428,65.504C92.755,66.513 91.791,67.71 90.534,69.095C89.277,70.48 87.687,72.155 85.766,74.122C83.844,76.089 81.55,78.634 78.881,81.756C78.743,81.927 78.444,82.023 77.984,82.042C77.523,82.061 77.141,82.057 76.838,82.03C75.988,81.953 75.157,81.511 74.343,80.703C73.529,79.895 73.164,79.036 73.246,78.126Z" style="fill:url(#_Linear3);fill-rule:nonzero;"/><path d="M107.829,57.954C106.979,57.877 106.202,58.021 105.496,58.385C104.79,58.749 103.982,58.89 103.072,58.808C102.951,58.797 102.634,58.753 102.121,58.676C101.608,58.599 101.291,58.555 101.169,58.544C100.954,58.218 100.703,57.951 100.416,57.741C100.129,57.532 99.844,57.307 99.56,57.067C99.275,56.828 99.041,56.546 98.856,56.224C98.671,55.901 98.604,55.467 98.653,54.921C98.735,54.011 99.167,53.301 99.947,52.79C100.727,52.28 101.622,51.856 102.631,51.519C103.64,51.183 104.662,50.878 105.696,50.604C106.73,50.331 107.572,49.979 108.223,49.549L108.586,45.544C108.992,41.055 109.188,36.531 109.173,31.972C109.158,27.414 110.44,19.462 110.842,15.033C110.952,13.82 111.326,13.058 111.966,12.749C112.606,12.44 113.441,12.332 114.473,12.426C115.686,12.536 116.549,12.966 117.062,13.716C117.576,14.465 117.908,15.352 118.06,16.375C118.212,17.398 118.237,18.471 118.136,19.593C118.034,20.715 117.978,21.674 117.967,22.468C117.896,23.257 117.83,24.658 117.77,26.671C117.71,28.684 116.549,34.277 116.467,36.533C116.385,38.788 116.314,40.923 116.254,42.936C116.194,44.949 116.159,46.353 116.148,47.147C116.396,47.108 116.881,46.984 117.604,46.774C118.326,46.564 119.094,46.359 119.907,46.157C120.721,45.955 121.487,45.765 122.207,45.585C122.927,45.406 123.444,45.269 123.758,45.175C125.396,44.651 127.101,44.056 128.874,43.391C130.647,42.726 132.414,42.473 134.173,42.632C135.386,42.742 136.274,43.236 136.837,44.112C137.4,44.989 137.632,45.973 137.533,47.066C137.462,47.854 137.106,48.403 136.467,48.712C135.827,49.021 135.16,49.297 134.465,49.54L117.341,54.228C117.148,54.333 116.957,54.423 116.766,54.497C116.576,54.572 116.382,54.692 116.183,54.857L115.92,57.769C115.727,59.893 115.573,62.096 115.458,64.38C115.343,66.663 115.341,68.88 115.452,71.031C115.591,72.879 115.762,74.699 115.967,76.491C116.172,78.283 116.191,80.09 116.027,81.91C115.977,82.456 115.729,83.167 115.283,84.044C114.836,84.921 114.219,85.324 113.43,85.253C111.792,85.104 110.501,84.498 109.558,83.434C108.614,82.37 108.156,81.013 108.183,79.364C108.165,76.182 108.16,72.695 108.167,68.903C108.174,65.111 108.183,61.473 108.193,57.987L107.829,57.954Z" style="fill:url(#_Linear4);fill-rule:nonzero;"/><path d="M131.819,78.977C131.896,78.127 132.286,77.368 132.989,76.697C133.692,76.027 134.469,75.73 135.318,75.807C136.349,75.901 137.159,76.249 137.746,76.853C138.334,77.457 138.901,78.12 139.447,78.842L139.422,79.115C139.329,80.146 138.896,81.04 138.124,81.796C137.352,82.552 136.39,82.877 135.237,82.773C134.449,82.702 133.663,82.263 132.879,81.458C132.096,80.653 131.743,79.826 131.819,78.977Z" style="fill:url(#_Linear5);fill-rule:nonzero;"/><path d="M150.332,56.327L150.347,56.162C150.387,55.723 150.579,55.283 150.923,54.844C151.268,54.404 151.62,54.035 151.979,53.735L152.36,49.532C152.773,44.973 153.107,40.517 153.363,36.165C153.619,31.813 153.736,27.31 153.714,22.655C153.779,21.941 154.075,21.428 154.602,21.116C155.128,20.803 155.666,20.672 156.216,20.722C157.779,20.587 158.914,21.049 159.621,22.11C160.328,23.171 160.769,24.568 160.944,26.301C161.119,28.034 161.111,29.958 160.92,32.073C160.728,34.187 160.502,36.23 160.24,38.2C159.979,40.17 159.778,41.924 159.639,43.463C159.499,45.001 159.597,46.062 159.932,46.646C160.671,46.436 161.053,46.346 161.078,46.376C161.103,46.406 161.1,46.433 161.071,46.458C161.041,46.483 161.1,46.433 161.25,46.309C161.4,46.184 161.944,45.831 162.883,45.252C164.176,44.427 165.644,43.965 167.287,43.865C168.93,43.764 170.465,43.779 171.894,43.908C175.2,44.706 177.441,45.948 178.618,47.633C179.794,49.318 180.197,51.292 179.826,53.557C179.454,55.822 178.443,58.278 176.791,60.925C175.139,63.573 173.136,66.271 170.782,69.021C168.428,71.771 165.857,74.473 163.069,77.128C160.281,79.784 157.591,82.268 155,84.581C154.506,84.536 153.95,84.402 153.334,84.18C152.717,83.958 152.149,83.658 151.629,83.278C151.11,82.899 150.68,82.445 150.34,81.915C150.001,81.386 149.861,80.792 149.92,80.133L151.868,58.626L150.332,56.327ZM158.409,63.456C158.394,63.621 158.373,64.006 158.346,64.613C158.319,65.22 158.301,65.869 158.294,66.561C158.287,67.252 158.27,67.901 158.242,68.508C158.215,69.115 158.194,69.501 158.179,69.666C158.164,69.83 158.138,70.119 158.101,70.531C158.063,70.943 158.037,71.384 158.023,71.853C158.008,72.322 157.982,72.763 157.944,73.175C157.907,73.587 157.881,73.875 157.866,74.04C158.48,73.985 159.401,73.293 160.629,71.964C161.857,70.636 163.134,69.076 164.459,67.285C165.785,65.495 167.029,63.683 168.192,61.85C169.355,60.016 170.233,58.573 170.827,57.519C171.096,56.99 171.376,56.35 171.665,55.601C171.955,54.852 172.177,54.083 172.331,53.294C172.486,52.505 172.497,51.772 172.364,51.095C172.232,50.419 171.881,49.861 171.311,49.421C170.322,49.332 169.243,49.483 168.072,49.876C166.901,50.268 165.745,50.8 164.604,51.472C163.463,52.144 162.426,52.895 161.492,53.724C160.559,54.554 159.862,55.363 159.403,56.152C159.323,56.422 159.239,56.899 159.149,57.583C159.059,58.267 158.966,58.992 158.869,59.759C158.772,60.525 158.677,61.265 158.585,61.976C158.493,62.688 158.434,63.181 158.409,63.456Z" style="fill:url(#_Linear6);fill-rule:nonzero;"/><path d="M212.06,66.267C211.877,67.166 211.7,67.862 211.528,68.355C211.356,68.847 211.101,69.282 210.762,69.658C210.422,70.034 209.956,70.411 209.363,70.79C208.769,71.168 207.958,71.705 206.929,72.399C205.9,73.094 204.622,74.008 203.096,75.141C201.57,76.274 199.707,77.758 197.507,79.592C196.631,80.275 195.728,80.982 194.798,81.711C193.868,82.44 192.907,83.078 191.917,83.623C190.927,84.169 189.91,84.598 188.865,84.91C187.82,85.222 186.742,85.328 185.633,85.228C183.464,85.031 181.942,84.156 181.066,82.602C180.19,81.049 179.838,79.313 180.012,77.397C180.126,76.136 180.26,75.081 180.413,74.23C180.567,73.38 180.856,72.288 181.282,70.953C180.773,70.399 180.334,69.914 179.965,69.499C179.596,69.085 179.441,68.549 179.5,67.894C179.555,67.289 179.73,66.898 180.026,66.721C180.321,66.545 180.662,66.436 181.047,66.394C181.432,66.353 181.806,66.298 182.168,66.229C182.53,66.16 182.8,65.981 182.979,65.692C183.107,65.399 183.347,64.861 183.697,64.079C184.048,63.298 184.414,62.479 184.797,61.624C185.179,60.769 185.544,59.963 185.893,59.207C186.241,58.45 186.479,57.925 186.607,57.632C187.038,56.806 187.507,55.972 188.016,55.128C188.525,54.285 189.101,53.536 189.745,52.882C190.389,52.229 191.122,51.711 191.945,51.328C192.768,50.945 193.708,50.801 194.767,50.897C195.373,50.952 196.091,51.297 196.924,51.931C197.756,52.566 198.54,53.311 199.276,54.165C200.012,55.02 200.619,55.901 201.096,56.809C201.573,57.716 201.784,58.473 201.729,59.078C201.661,59.834 201.421,60.512 201.011,61.11C200.601,61.708 200.107,62.248 199.53,62.73C198.952,63.212 198.341,63.652 197.694,64.051C197.048,64.45 196.454,64.828 195.914,65.186C195.863,65.182 195.758,65.223 195.597,65.31C195.437,65.397 195.304,65.461 195.199,65.503L194.209,66.328C193.989,66.512 193.781,66.696 193.586,66.882C193.392,67.068 193.267,67.183 193.212,67.229C193.047,67.367 192.735,67.58 192.277,67.869C191.818,68.158 191.32,68.469 190.781,68.801C190.243,69.134 189.744,69.445 189.286,69.734C188.828,70.023 188.518,70.211 188.358,70.298L188.001,70.876C187.881,71.068 187.753,71.501 187.616,72.175C187.479,72.849 187.321,73.61 187.142,74.459C186.964,75.307 186.797,76.169 186.641,77.044C186.485,77.92 186.382,78.635 186.332,79.19C186.328,79.24 186.348,79.293 186.394,79.348C186.486,79.458 186.557,79.515 186.607,79.52C187.011,79.556 187.405,79.414 187.79,79.093C188.175,78.772 188.576,78.554 188.993,78.439L202.11,68.34L205.644,63.856C205.928,63.526 206.455,63.179 207.225,62.817C207.995,62.454 208.759,62.295 209.518,62.338C210.277,62.382 210.923,62.682 211.457,63.238C211.992,63.795 212.193,64.805 212.06,66.267ZM195.953,58.86C196.223,58.681 196.352,58.387 196.338,57.979C196.324,57.571 196.217,57.206 196.018,56.883C195.818,56.559 195.545,56.344 195.199,56.236C194.853,56.129 194.508,56.288 194.164,56.715C193.995,56.903 193.693,57.282 193.26,57.853C192.827,58.424 192.393,59.007 191.958,59.604C191.522,60.2 191.158,60.713 190.865,61.144C190.572,61.575 190.505,61.747 190.666,61.66L195.953,58.86Z" style="fill:url(#_Linear7);fill-rule:nonzero;"/><defs><linearGradient id="_Linear1" x1="0" y1="0" x2="1" y2="0" gradientUnits="userSpaceOnUse" gradientTransform="matrix(144.123,-18.9497,18.9497,144.123,45.9649,84.8942)"><stop offset="0" style="stop-color:rgb(221,49,210);stop-opacity:1"/><stop offset="1" style="stop-color:rgb(15,251,255);stop-opacity:1"/></linearGradient><linearGradient id="_Linear2" x1="0" y1="0" x2="1" y2="0" gradientUnits="userSpaceOnUse" gradientTransform="matrix(136.879,-17.9972,17.9972,136.879,46.0128,81.132)"><stop offset="0" style="stop-color:rgb(221,49,210);stop-opacity:1"/><stop offset="1" style="stop-color:rgb(15,251,255);stop-opacity:1"/></linearGradient><linearGradient id="_Linear3" x1="0" y1="0" x2="1" y2="0" gradientUnits="userSpaceOnUse" gradientTransform="matrix(136.879,-17.9972,17.9972,136.879,46.0128,81.132)"><stop offset="0" style="stop-color:rgb(221,49,210);stop-opacity:1"/><stop offset="1" style="stop-color:rgb(15,251,255);stop-opacity:1"/></linearGradient><linearGradient id="_Linear4" x1="0" y1="0" x2="1" y2="0" gradientUnits="userSpaceOnUse" gradientTransform="matrix(136.879,-17.9972,17.9972,136.879,46.0128,81.132)"><stop offset="0" style="stop-color:rgb(221,49,210);stop-opacity:1"/><stop offset="1" style="stop-color:rgb(15,251,255);stop-opacity:1"/></linearGradient><linearGradient id="_Linear5" x1="0" y1="0" x2="1" y2="0" gradientUnits="userSpaceOnUse" gradientTransform="matrix(136.879,-17.9972,17.9972,136.879,46.0128,81.132)"><stop offset="0" style="stop-color:rgb(221,49,210);stop-opacity:1"/><stop offset="1" style="stop-color:rgb(15,251,255);stop-opacity:1"/></linearGradient><linearGradient id="_Linear6" x1="0" y1="0" x2="1" y2="0" gradientUnits="userSpaceOnUse" gradientTransform="matrix(123.937,-16.2955,16.2955,123.937,55.6398,81.3967)"><stop offset="0" style="stop-color:rgb(221,49,210);stop-opacity:1"/><stop offset="1" style="stop-color:rgb(15,251,255);stop-opacity:1"/></linearGradient><linearGradient id="_Linear7" x1="0" y1="0" x2="1" y2="0" gradientUnits="userSpaceOnUse" gradientTransform="matrix(113.776,-14.9595,14.9595,113.776,65.0342,80.0244)"><stop offset="0" style="stop-color:rgb(221,49,210);stop-opacity:1"/><stop offset="1" style="stop-color:rgb(15,251,255);stop-opacity:1"/></linearGradient></defs></svg>